<svg width="19" height="19" viewBox="0 0 19 19" fill="none" xmlns="http://www.w3.org/2000/svg">
<path fill-rule="evenodd" clip-rule="evenodd" d="M9.5 0.5C4.52944 0.5 0.5 4.52944 0.5 9.5C0.5 14.4706 4.52944 18.5 9.5 18.5C14.4706 18.5 18.5 14.4706 18.5 9.5C18.5 7.11305 17.5518 4.82387 15.864 3.13604C14.1761 1.44821 11.8869 0.5 9.5 0.5ZM1.5 9.5C1.5 5.08172 5.08172 1.5 9.5 1.5C11.6217 1.5 13.6566 2.34285 15.1569 3.84315C16.6571 5.34344 17.5 7.37827 17.5 9.5C17.5 13.9183 13.9183 17.5 9.5 17.5C5.08172 17.5 1.5 13.9183 1.5 9.5ZM12.459 12.4594C12.5914 12.3271 12.5919 12.1126 12.4601 11.9796L9.83967 9.35911V5.42C9.83967 5.23223 9.68744 5.08 9.49967 5.08C9.31189 5.08 9.15967 5.23223 9.15967 5.42L9.15987 9.50109C9.16015 9.58919 9.19488 9.67368 9.25664 9.73651L9.25922 9.74038L11.9792 12.4604C12.1121 12.5922 12.3266 12.5917 12.459 12.4594Z" fill="#333333"/>
</svg>
